<svg width="178" height="35" viewBox="0 0 178 35" fill="none" xmlns="http://www.w3.org/2000/svg">
<g clip-path="url(#clip0)">
<path d="M46.9958 23.398V13.0451C46.9958 12.6565 47.2165 12.4067 47.6302 12.4067H50.1951C50.5812 12.4067 50.8294 12.6288 50.8294 13.0451V22.9817C50.8294 25.1744 52.1809 25.9238 53.615 25.9238C55.0492 25.9238 56.4006 25.2021 56.4006 22.9817V13.0451C56.4006 12.6565 56.6212 12.4067 57.0349 12.4067H59.6274C60.0135 12.4067 60.2617 12.6288 60.2617 13.0451V23.398C60.2617 26.7287 57.9174 29.6708 53.615 29.6708C49.3126 29.6708 46.9958 26.701 46.9958 23.398Z" fill="black"/>
<path d="M62.9922 28.8104V13.0451C62.9922 12.6565 63.2128 12.4067 63.6265 12.4067H66.1914C66.5224 12.4067 66.7706 12.5455 66.9361 12.8231L73.1416 22.6209V13.0451C73.1416 12.6565 73.3622 12.4067 73.7759 12.4067H76.3408C76.7269 12.4067 76.9751 12.6288 76.9751 13.0451V28.8104C76.9751 29.199 76.7545 29.4488 76.3408 29.4488H73.7483C73.4174 29.4488 73.1691 29.31 73.0037 29.0324L66.8258 19.2624V28.8381C66.8258 29.2267 66.6051 29.4765 66.1914 29.4765H63.6265C63.2128 29.4488 62.9922 29.199 62.9922 28.8104Z" fill="black"/>
<path d="M79.7332 28.8104V13.0451C79.7332 12.6565 79.9538 12.4067 80.3675 12.4067H82.9324C83.3185 12.4067 83.5667 12.6288 83.5667 13.0451V28.8104C83.5667 29.199 83.3461 29.4488 82.9324 29.4488H80.3675C79.9538 29.4488 79.7332 29.199 79.7332 28.8104Z" fill="black"/>
<path d="M85.9937 26.0349C85.8007 25.7296 85.911 25.3966 86.2144 25.2023L88.3105 23.6757C88.6138 23.4537 88.9172 23.4814 89.1654 23.8145C89.9377 24.6749 91.6752 25.9239 93.5782 25.9239C95.3157 25.9239 95.6743 25.2578 95.6743 24.5084C95.6743 23.3704 93.2197 22.9263 92.0337 22.4822C90.8202 22.0381 86.435 21.1499 86.435 17.3196C86.435 13.5449 89.7446 12.1016 93.1369 12.1016C96.1155 12.1016 98.6529 13.7114 99.5906 15.3212C99.8112 15.6543 99.6733 15.9596 99.37 16.1539L97.3291 17.5139C96.9981 17.736 96.7223 17.6805 96.4741 17.4029C95.757 16.709 94.3229 15.9319 92.6681 15.9319C91.4546 15.9319 90.8478 16.3759 90.8478 17.0976C90.8478 18.2633 93.1369 18.7074 94.378 19.1515C95.5639 19.5956 99.9767 20.7058 99.9767 24.2863C99.9767 27.8668 97.1912 29.7265 93.1369 29.7265C89.4964 29.7542 87.0142 27.9223 85.9937 26.0349Z" fill="black"/>
<path d="M102.211 28.8104V13.0451C102.211 12.6565 102.431 12.4067 102.845 12.4067H113.215C113.601 12.4067 113.849 12.6288 113.849 13.0451V15.2933C113.849 15.6819 113.629 15.9317 113.215 15.9317H106.044V19.1791H112.663C113.05 19.1791 113.298 19.4012 113.298 19.8175V22.0657C113.298 22.4543 113.077 22.7041 112.663 22.7041H106.044V25.9515H113.215C113.601 25.9515 113.849 26.1736 113.849 26.5899V28.8381C113.849 29.2267 113.629 29.4765 113.215 29.4765H102.845C102.459 29.4488 102.211 29.199 102.211 28.8104Z" fill="black"/>
<path d="M116.469 28.8104V13.0451C116.469 12.6565 116.69 12.4067 117.104 12.4067H119.669C120 12.4067 120.248 12.5455 120.413 12.8231L126.619 22.6209V13.0451C126.619 12.6565 126.839 12.4067 127.253 12.4067H129.818C130.204 12.4067 130.452 12.6288 130.452 13.0451V28.8104C130.452 29.199 130.232 29.4488 129.818 29.4488H127.226C126.895 29.4488 126.646 29.31 126.481 29.0324L120.303 19.2624V28.8381C120.303 29.2267 120.082 29.4765 119.669 29.4765H117.104C116.69 29.4488 116.469 29.199 116.469 28.8104Z" fill="black"/>
<path d="M133.21 28.8104V13.0451C133.21 12.6565 133.431 12.4067 133.845 12.4067H139.636C144.573 12.4067 147.938 15.8762 147.938 20.9278C147.938 25.9793 144.573 29.4488 139.636 29.4488H133.845C133.431 29.4488 133.21 29.199 133.21 28.8104ZM139.636 25.7017C140.795 25.7017 144.132 25.0911 144.104 20.9278C144.077 16.7921 140.795 16.1538 139.636 16.1538H137.044V25.7017H139.636Z" fill="black"/>
<path d="M150.31 28.8104V13.0451C150.31 12.6565 150.53 12.4067 150.944 12.4067H161.314C161.7 12.4067 161.948 12.6288 161.948 13.0451V15.2933C161.948 15.6819 161.728 15.9317 161.314 15.9317H154.143V19.1791H160.762C161.148 19.1791 161.397 19.4012 161.397 19.8175V22.0657C161.397 22.4543 161.176 22.7041 160.762 22.7041H154.143V25.9515H161.314C161.7 25.9515 161.948 26.1736 161.948 26.5899V28.8381C161.948 29.2267 161.728 29.4765 161.314 29.4765H150.944C150.53 29.4488 150.31 29.199 150.31 28.8104Z" fill="black"/>
<path d="M164.541 28.8104V13.0451C164.541 12.6565 164.762 12.4067 165.175 12.4067H172.76C175.27 12.4067 178.028 14.2941 178.028 18.1522C178.028 20.9555 176.538 22.7319 174.773 23.4813L177.917 28.6994C178.165 29.1157 178 29.4488 177.504 29.4488H174.47C174.139 29.4488 173.891 29.3377 173.725 29.0324L170.636 23.8976H168.43V28.8104C168.43 29.199 168.209 29.4488 167.795 29.4488H165.231C164.762 29.4488 164.541 29.199 164.541 28.8104ZM172.098 20.1506C173.201 20.1506 174.194 19.4567 174.194 18.1244C174.194 16.8199 173.201 16.126 172.098 16.126H168.375V20.1228H172.098V20.1506Z" fill="black"/>
<path d="M33.6472 12.8506C33.4265 11.3241 32.544 6.99417 29.0965 5.16229C26.7798 3.94104 22.9738 2.60876 17.8991 3.7745C14.3689 4.57942 13.2933 5.74516 12.2177 7.10519C11.0318 8.63176 11.0593 10.7412 10.8387 13.3502C10.8111 13.7666 10.4526 14.0996 10.0389 14.0719C7.88766 14.0164 5.57095 13.8221 3.33699 13.6278C2.89571 13.6 2.5096 13.9331 2.48202 14.405C2.20622 21.3994 3.72311 25.1464 7.58428 27.4224C9.48728 28.5326 11.5558 29.171 15.0032 28.4216C15.0584 28.5604 15.1411 28.6714 15.1963 28.8102C17.2372 33.6397 16.7959 35.0275 21.6224 34.3336C22.4774 34.2226 23.3048 33.9728 24.077 33.6674C27.9933 32.0576 32.4888 28.1163 32.5164 23.8419C32.5716 18.7904 34.1988 16.6532 33.6472 12.8506Z" fill="#FCB43D"/>
<path d="M25.7596 7.16118C34.1439 18.7631 17.1823 20.6505 16.1894 13.7948C15.2793 7.46649 23.6635 4.27458 25.7596 7.16118Z" fill="white"/>
<path d="M26.0629 10.2138C25.4285 8.65943 23.6358 7.2994 21.8707 7.60471C21.457 7.68798 21.5122 8.32636 21.9259 8.27085C23.4152 8.02105 24.8769 9.15903 25.4009 10.4636C25.594 10.8521 26.2008 10.6023 26.0629 10.2138Z" fill="#131313"/>
<path d="M17.4029 25.2299C17.1823 25.2577 16.9892 25.2854 16.8513 25.2854C16.3824 25.341 15.9687 24.9801 15.9412 24.536C15.886 24.0642 16.2445 23.6479 16.6858 23.6201C17.1271 23.5646 21.1262 23.1205 22.3397 20.7613C22.5603 20.3449 23.0568 20.1784 23.4705 20.4004C23.8841 20.6225 24.0496 21.1221 23.829 21.5384C22.4776 24.203 18.9198 25.0079 17.4029 25.2299Z" fill="#131313"/>
<path d="M9.18419 19.3179C9.65305 19.1792 9.92884 18.7351 9.79094 18.3187C9.68063 17.9024 9.21177 17.6804 8.74291 17.8191C8.27406 17.9579 7.99826 18.402 8.13616 18.8183C8.27406 19.2347 8.74291 19.4567 9.18419 19.3179Z" fill="#131313"/>
<path d="M9.12876 21.0391C9.45972 20.9558 9.65278 20.6228 9.57004 20.3452C9.4873 20.0677 9.15634 19.9011 8.85296 19.9844C8.52201 20.0677 8.32895 20.4007 8.41169 20.6783C8.49443 20.9558 8.7978 21.1224 9.12876 21.0391Z" fill="#131313"/>
<path d="M11.1422 20.2891C11.4732 20.2059 11.6662 19.8728 11.5835 19.5952C11.5007 19.3177 11.1698 19.1511 10.8664 19.2344C10.5354 19.3177 10.3424 19.6507 10.4251 19.9283C10.5079 20.2059 10.8388 20.3724 11.1422 20.2891Z" fill="#131313"/>
<path d="M23.7186 13.5726C23.9393 12.1293 23.3877 10.8525 22.45 10.7137C21.5398 10.575 20.6021 11.6019 20.3815 13.0175C20.1608 14.4608 20.7124 15.7375 21.6501 15.8763C22.5603 16.0428 23.498 14.9881 23.7186 13.5726Z" fill="#131313"/>
<path d="M15.3344 13.323C15.6102 12.2961 15.2792 11.3246 14.6173 11.1303C13.9278 10.9361 13.1556 11.6022 12.8798 12.6292C12.604 13.6561 12.9349 14.6276 13.5968 14.8219C14.2863 15.0161 15.0586 14.35 15.3344 13.323Z" fill="#131313"/>
<path d="M22.3396 13.2948C22.3396 13.7945 22.7533 14.2108 23.2773 14.2108C23.3876 14.2108 23.4979 14.183 23.5807 14.1553C23.6358 13.961 23.691 13.7667 23.7186 13.5724C23.7737 13.2116 23.7737 12.8508 23.7462 12.5177C23.6083 12.4344 23.4428 12.3789 23.2773 12.3789C22.7809 12.3789 22.3396 12.7952 22.3396 13.2948Z" fill="white"/>
<path d="M14.8379 12.3789C14.4242 12.3789 14.0933 12.712 14.0933 13.1283C14.0933 13.5446 14.4242 13.8777 14.8379 13.8777C14.9482 13.8777 15.0586 13.85 15.1413 13.8222C15.224 13.6834 15.2792 13.5169 15.3344 13.3504C15.3895 13.1283 15.4171 12.9063 15.4447 12.6842C15.3068 12.4899 15.0861 12.3789 14.8379 12.3789Z" fill="white"/>
<path d="M37.8395 4.10785C35.3849 0.444092 29.7862 2.02617 24.1323 0C23.7462 1.11023 23.7462 2.08168 24.022 2.94211C23.3325 2.85884 22.643 2.80333 21.8708 2.80333C21.2364 2.80333 20.5745 2.83109 19.885 2.91435C19.885 2.85884 19.8574 2.80333 19.8574 2.74782C19.1404 -0.166535 10.0115 2.72006 7.5017 1.13799C7.72234 4.21887 9.5426 5.93973 11.2526 8.13243C10.7837 9.52022 10.7561 11.2133 10.5631 13.1562C10.5355 13.5726 10.1769 13.9056 9.76324 13.9056H9.73566C8.85311 13.8779 7.9154 13.8224 6.97768 13.7669C6.15029 11.8239 -0.74466 10.6027 0.0551544 15.0991C0.441271 17.2363 1.24109 18.8739 2.1788 19.7066C2.75797 23.5924 4.38518 26.0349 7.2259 27.7002C8.52215 28.4496 10.2321 28.9215 12.2454 28.9215C13.2659 28.9215 13.7347 28.977 14.9207 28.7272C14.9758 28.866 15.0586 28.977 15.1137 29.1158C16.9064 33.3624 16.079 35 19.7747 35C20.409 35 21.1261 34.9445 21.8708 34.8335C22.7533 34.6947 23.6083 34.4726 24.4081 34.1396C28.4623 32.4742 34.0059 28.5607 34.0335 24.1475C34.0886 19.2625 34.6678 16.8477 34.2541 13.3228C36.6811 11.5464 37.8119 8.10468 38.2256 6.38382C38.4186 5.60666 38.2807 4.77399 37.8395 4.10785ZM32.3511 24.1475C32.3235 27.9778 27.1385 31.1975 23.7738 32.5853C23.0843 32.8628 22.3672 33.0571 21.6226 33.1681C20.9606 33.2514 20.3263 33.3069 19.7747 33.3069C17.2925 33.3069 18.4233 32.6408 16.6582 28.4496C16.603 28.3386 16.5479 28.2554 16.5203 28.1443C16.4927 28.1166 16.4927 28.0611 16.4651 28.0333L15.886 26.8121L14.5621 27.0896C13.5141 27.3117 13.1831 27.2561 12.2454 27.2561C10.6458 27.2561 9.18407 26.9231 8.08087 26.2569C6.20545 25.1745 4.99194 23.6757 4.30244 21.5385C4.13696 20.9833 4.27486 20.345 4.74372 20.0119C5.46079 19.4845 6.09513 18.4021 6.59157 16.6534C6.78462 15.9873 7.39138 15.571 8.05329 15.5987C8.60489 15.6265 9.15649 15.6542 9.70808 15.6542H9.73566H9.76324C11.0595 15.6542 12.1351 14.655 12.2454 13.3505C12.273 12.9064 12.3282 12.4901 12.3557 12.0738C12.4385 10.9635 12.5212 10.0198 12.7143 9.21491C13.3486 8.35448 14.4794 7.79937 15.5274 7.77161C15.9687 7.74385 15.9687 7.07772 15.5274 7.07772C14.8103 7.10547 14.0381 7.32752 13.3762 7.7161C14.2036 6.66138 15.0034 5.68993 18.2578 4.94052C19.4713 4.66297 20.7124 4.52419 21.8984 4.52419C23.0291 4.52419 24.1323 4.66297 25.2079 4.91277C27.4419 7.54956 31.7168 9.659 32.6545 13.8501C32.9578 17.0143 32.4063 19.318 32.3511 24.1475Z" fill="#131313"/>
<path d="M2.42711 14.0445C2.89597 13.9057 3.17176 13.4616 3.03387 13.0453C2.92355 12.629 2.45469 12.4069 1.98583 12.5457C1.51698 12.6845 1.24118 13.1286 1.37908 13.5449C1.4894 13.9612 1.95825 14.1833 2.42711 14.0445Z" fill="white"/>
</g>
<defs>
<clipPath id="clip0">
<rect width="178" height="35" fill="white"/>
</clipPath>
</defs>
</svg>
