<svg width="41" height="40" viewBox="0 0 41 40" fill="none" xmlns="http://www.w3.org/2000/svg">
<path d="M40.0909 20C40.0909 31.0457 31.1163 40 20.0455 40C8.97464 40 0 31.0457 0 20C0 8.95429 8.97464 0 20.0455 0C31.1163 0 40.0909 8.95429 40.0909 20Z" fill="#8399E6"/>
<path fill-rule="evenodd" clip-rule="evenodd" d="M20.0455 6.9043C14.3035 6.9043 9.42098 10.5834 7.64033 15.71L6.28831 15.2424C8.26245 9.55897 13.6752 5.47668 20.0455 5.47668C27.7297 5.47668 34.0232 11.4174 34.5641 18.9467L36.2947 16.707L37.428 17.5787L34.593 21.2476C34.477 21.3977 34.306 21.4956 34.1176 21.5198C33.9293 21.544 33.739 21.4924 33.5888 21.3765L30.1325 18.7107L31.0077 17.5813L33.1488 19.2327C32.7506 12.3573 27.0363 6.9043 20.0455 6.9043ZM23.0359 14.5078C23.0511 14.5213 23.067 14.5355 23.0839 14.5505L23.9642 15.3345C28.1277 19.0423 25.5107 25.9529 20.0004 25.9529V27.3805C26.8624 27.3805 30.0331 18.8255 24.9171 14.2694L24.0194 13.47C23.9044 13.3676 23.7857 13.2618 23.6775 13.1814C23.5603 13.0945 23.3858 12.9827 23.1546 12.9435C22.8586 12.8932 22.5545 12.9562 22.303 13.1199C22.1066 13.2477 21.9911 13.4195 21.9183 13.5458C21.851 13.6624 21.7843 13.8067 21.7197 13.9463L19.8346 18.0175L16.0286 14.7229C15.8466 14.5654 15.6751 14.4169 15.5269 14.3103C15.3862 14.2091 15.1431 14.0502 14.8297 14.0411C14.4601 14.0304 14.1064 14.1914 13.8722 14.477C13.6737 14.7192 13.6347 15.0065 13.6191 15.1788C13.6027 15.3604 13.6027 15.587 13.6027 15.8274V22.3683H15.0337V15.856C15.0337 15.8193 15.0337 15.7846 15.0337 15.7519C15.0585 15.7733 15.0848 15.796 15.1126 15.8201L20.3351 20.3408L23.0089 14.5661C23.0184 14.5456 23.0274 14.5262 23.0359 14.5078ZM5.97331 18.4803C6.16164 18.4561 6.35193 18.5076 6.50217 18.6235L9.95839 21.2893L9.08326 22.4188L6.94217 20.7674C7.34031 27.6428 13.0547 33.0957 20.0455 33.0957C25.7874 33.0957 30.6699 29.4166 32.4506 24.2901L33.8027 24.7576C31.8285 30.4411 26.4157 34.5234 20.0455 34.5234C12.3612 34.5234 6.06766 28.5827 5.52682 21.0534L3.7962 23.293L2.66299 22.4214L5.49799 18.7524C5.61392 18.6024 5.78493 18.5044 5.97331 18.4803Z" fill="white"/>
</svg>